<svg width="18" height="19" viewBox="0 0 18 19" fill="none" xmlns="http://www.w3.org/2000/svg">
    <path d="M15.0001 6.50037L10.5001 2.55537C10.0876 2.1864 9.55352 1.98242 9.00007 1.98242C8.44662 1.98242 7.91259 2.1864 7.50007 2.55537L3.00007 6.50037C2.76185 6.71343 2.57175 6.97479 2.44243 7.26705C2.3131 7.55932 2.24753 7.87578 2.25007 8.19537V14.7504C2.25007 15.3471 2.48712 15.9194 2.90908 16.3414C3.33104 16.7633 3.90333 17.0004 4.50007 17.0004H13.5001C14.0968 17.0004 14.6691 16.7633 15.0911 16.3414C15.513 15.9194 15.7501 15.3471 15.7501 14.7504V8.18787C15.7515 7.86954 15.6855 7.55453 15.5562 7.26363C15.4269 6.97274 15.2373 6.71259 15.0001 6.50037ZM10.5001 15.5004H7.50007V11.7504C7.50007 11.5515 7.57909 11.3607 7.71974 11.22C7.86039 11.0794 8.05116 11.0004 8.25007 11.0004H9.75007C9.94898 11.0004 10.1397 11.0794 10.2804 11.22C10.4211 11.3607 10.5001 11.5515 10.5001 11.7504V15.5004ZM14.2501 14.7504C14.2501 14.9493 14.1711 15.14 14.0304 15.2807C13.8897 15.4214 13.699 15.5004 13.5001 15.5004H12.0001V11.7504C12.0001 11.1536 11.763 10.5813 11.3411 10.1594C10.9191 9.73742 10.3468 9.50037 9.75007 9.50037H8.25007C7.65333 9.50037 7.08104 9.73742 6.65908 10.1594C6.23712 10.5813 6.00007 11.1536 6.00007 11.7504V15.5004H4.50007C4.30116 15.5004 4.11039 15.4214 3.96974 15.2807C3.82909 15.14 3.75007 14.9493 3.75007 14.7504V8.18787C3.75021 8.08138 3.77302 7.97614 3.81698 7.87916C3.86095 7.78217 3.92507 7.69565 4.00507 7.62537L8.50507 3.68787C8.64194 3.56763 8.81789 3.50132 9.00007 3.50132C9.18225 3.50132 9.3582 3.56763 9.49507 3.68787L13.9951 7.62537C14.0751 7.69565 14.1392 7.78217 14.1832 7.87916C14.2271 7.97614 14.2499 8.08138 14.2501 8.18787V14.7504Z" fill="white"/>
</svg>   