<svg width="19" height="16" viewBox="0 0 19 16" fill="none" xmlns="http://www.w3.org/2000/svg">
    <path d="M12.8735 0.934837V0.931641H13.7058L14.01 0.992381C14.2127 1.03181 14.3968 1.08349 14.5622 1.14743C14.7276 1.21137 14.8877 1.28596 15.0424 1.37121C15.1971 1.45645 15.3374 1.54331 15.4634 1.63175C15.5882 1.71914 15.7002 1.81185 15.7995 1.90988C15.8976 2.00898 16.0508 2.03456 16.2589 1.9866C16.4669 1.93865 16.691 1.87204 16.9311 1.7868C17.1712 1.70156 17.4087 1.60565 17.6434 1.49908C17.8782 1.39252 18.0212 1.32485 18.0724 1.29608C18.1225 1.26626 18.1492 1.25027 18.1524 1.24813L18.1556 1.24333L18.1716 1.23534L18.1876 1.22735L18.2036 1.21936L18.2196 1.21137L18.2228 1.20657L18.2276 1.20337L18.2325 1.20018L18.2356 1.19538L18.2517 1.19059L18.2677 1.18739L18.2645 1.21137L18.2597 1.23534L18.2517 1.25932L18.2437 1.28329L18.2356 1.29928L18.2276 1.31526L18.2196 1.33924C18.2143 1.35522 18.209 1.37653 18.2036 1.40318C18.1983 1.42982 18.1476 1.53637 18.0516 1.72286C17.9555 1.90935 17.8355 2.09849 17.6914 2.2903C17.5474 2.48212 17.4183 2.62703 17.3041 2.72508C17.1888 2.82418 17.1125 2.89344 17.0752 2.93287C17.0378 2.97336 16.9925 3.01065 16.9391 3.04476L16.8591 3.09751L16.8431 3.1055L16.8271 3.1135L16.8239 3.11829L16.8191 3.12149L16.8143 3.12468L16.8111 3.12948L16.7951 3.13747L16.7791 3.14546L16.7759 3.15026L16.7711 3.15346L16.7663 3.15665L16.7631 3.16145L16.7599 3.16624L16.7551 3.16944L16.7503 3.17264L16.7471 3.17743H16.8271L17.2753 3.08153C17.5741 3.01759 17.8595 2.94034 18.1316 2.84975L18.5638 2.7059L18.6118 2.68991L18.6358 2.68192L18.6518 2.67393L18.6678 2.66594L18.6838 2.65794L18.6998 2.64995L18.7318 2.64516L18.7639 2.64196V2.67393L18.7559 2.67712L18.7479 2.68192L18.7447 2.68672L18.7398 2.68991L18.735 2.69311L18.7318 2.6979L18.7287 2.7027L18.7238 2.7059L18.719 2.70909L18.7158 2.71389L18.7127 2.71868L18.7078 2.72188L18.6998 2.73786L18.6918 2.75385L18.687 2.75705C18.6849 2.76024 18.6171 2.85081 18.4837 3.02878C18.3504 3.2078 18.2783 3.29837 18.2677 3.30051C18.257 3.30371 18.2421 3.31969 18.2228 3.34846C18.2047 3.37829 18.0916 3.49712 17.8835 3.70491C17.6754 3.91271 17.4716 4.09758 17.2721 4.25957C17.0715 4.42261 16.9701 4.62294 16.968 4.86058C16.9648 5.09715 16.9525 5.36463 16.9311 5.66299C16.9098 5.96137 16.8698 6.28371 16.8111 6.63004C16.7524 6.97637 16.6617 7.36798 16.539 7.80488C16.4163 8.24178 16.2669 8.66803 16.0908 9.08363C15.9147 9.49922 15.7306 9.87218 15.5386 10.2025C15.3465 10.5329 15.1704 10.8126 15.0104 11.0417C14.8503 11.2708 14.6876 11.4866 14.5222 11.6891C14.3568 11.8915 14.1476 12.1196 13.8947 12.3732C13.6408 12.6257 13.502 12.7643 13.4786 12.7888C13.454 12.8122 13.3495 12.8996 13.1648 13.0509C12.9813 13.2033 12.7839 13.3557 12.5726 13.5081C12.3624 13.6594 12.1692 13.7857 11.9931 13.8869C11.8171 13.9881 11.6047 14.1037 11.3561 14.2338C11.1085 14.3648 10.8407 14.4863 10.5526 14.5982C10.2645 14.7101 9.96034 14.814 9.64021 14.9099C9.32008 15.0058 9.01063 15.0804 8.71184 15.1337C8.41306 15.187 8.07425 15.2323 7.69543 15.2695L7.1272 15.3255V15.3335H6.08679V15.3255L5.95073 15.3175C5.86004 15.3122 5.78534 15.3068 5.72664 15.3015C5.66796 15.2962 5.44653 15.2669 5.06238 15.2136C4.67822 15.1603 4.37677 15.107 4.15801 15.0538C3.93927 15.0005 3.6138 14.8992 3.18162 14.7501C2.74945 14.6009 2.3797 14.4501 2.07238 14.2977C1.76613 14.1464 1.57405 14.0505 1.49615 14.01C1.41932 13.9705 1.33288 13.9215 1.23685 13.8629L1.09279 13.775L1.0896 13.7702L1.08479 13.767L1.07998 13.7638L1.07678 13.759L1.06078 13.751L1.04477 13.743L1.04158 13.7382L1.03677 13.7351L1.03196 13.7319L1.02876 13.7271L1.02558 13.7223L1.02076 13.7191H1.01276V13.6871L1.02876 13.6903L1.04477 13.6951L1.1168 13.7031C1.16482 13.7084 1.29554 13.7164 1.50895 13.7271C1.72238 13.7377 1.94913 13.7377 2.18923 13.7271C2.42932 13.7164 2.67477 13.6924 2.92552 13.6551C3.17629 13.6178 3.47241 13.5539 3.81388 13.4633C4.15536 13.3727 4.46908 13.2651 4.75507 13.1404C5.03998 13.0147 5.24272 12.9209 5.36331 12.8591C5.48282 12.7984 5.66529 12.6854 5.91072 12.5202L6.27886 12.2725L6.28206 12.2677L6.28687 12.2645L6.29168 12.2613L6.29487 12.2565L6.29807 12.2517L6.30287 12.2485L6.30769 12.2453L6.31088 12.2405L6.32688 12.2357L6.34289 12.2325L6.34609 12.2165L6.35089 12.2006L6.35571 12.1974L6.3589 12.1926L6.23084 12.1846C6.14548 12.1793 6.06278 12.1739 5.98275 12.1686C5.90271 12.1633 5.77733 12.1393 5.60659 12.0967C5.43587 12.054 5.2518 11.9901 5.05437 11.9049C4.85697 11.8196 4.66489 11.7184 4.47814 11.6011C4.29141 11.4839 4.15641 11.3864 4.07318 11.3086C3.99102 11.2319 3.88431 11.1232 3.75305 10.9826C3.62287 10.8408 3.50976 10.6954 3.41372 10.5462C3.31768 10.397 3.22591 10.2249 3.13842 10.0299L3.00555 9.73898L2.99755 9.715L2.98955 9.69103L2.98475 9.67504L2.98154 9.65906L3.00555 9.66226L3.02956 9.66705L3.20563 9.69103C3.32302 9.70701 3.5071 9.71234 3.75785 9.70701C4.00863 9.70169 4.18202 9.69103 4.27806 9.67504C4.3741 9.65906 4.4328 9.6484 4.45413 9.64307L4.48615 9.63508L4.52616 9.62709L4.56618 9.6191L4.56938 9.6143L4.57418 9.61111L4.579 9.60791L4.58218 9.60311L4.55017 9.59512L4.51816 9.58713L4.48615 9.57914L4.45413 9.57115L4.42212 9.56315C4.40078 9.55783 4.36344 9.54717 4.31008 9.53119C4.25673 9.5152 4.11267 9.45659 3.8779 9.35536C3.64315 9.25413 3.45641 9.15555 3.31768 9.05965C3.17861 8.96346 3.046 8.85828 2.92072 8.74476C2.79587 8.62967 2.65876 8.48155 2.50936 8.3004C2.35997 8.11925 2.22659 7.90878 2.1092 7.66902C1.99182 7.42925 1.90378 7.20015 1.84509 6.98169C1.78663 6.76452 1.74806 6.54249 1.72986 6.31834L1.70103 5.98267L1.71704 5.98587L1.73304 5.99067L1.74905 5.99866L1.76506 6.00665L1.78106 6.01464L1.79707 6.02263L2.04517 6.13452C2.21058 6.20912 2.41599 6.27306 2.66142 6.32634C2.90686 6.37961 3.05357 6.40893 3.10159 6.41425L3.17362 6.42224H3.31768L3.31449 6.41745L3.30968 6.41425L3.30487 6.41105L3.30167 6.40626L3.29849 6.40146L3.29367 6.39827L3.28887 6.39507L3.28567 6.39027L3.26966 6.38228L3.25365 6.37429L3.25047 6.36949L3.24565 6.3663L3.24085 6.3631L3.23765 6.3583L3.22164 6.35031L3.20563 6.34232L3.20245 6.33753C3.19925 6.33538 3.15336 6.30129 3.06478 6.23523C2.97727 6.16809 2.88551 6.08125 2.78947 5.97468C2.69343 5.86811 2.59739 5.75623 2.50135 5.63901C2.40514 5.52153 2.31944 5.39584 2.24525 5.26338C2.17056 5.13018 2.09159 4.96073 2.00835 4.75508C1.92619 4.55048 1.86377 4.34429 1.82108 4.13649C1.77841 3.92869 1.7544 3.72357 1.74905 3.52109C1.74372 3.31862 1.74905 3.14546 1.76506 3.00161C1.78106 2.85775 1.81308 2.69523 1.8611 2.51408C1.90912 2.33293 1.97849 2.14112 2.06918 1.93865L2.20523 1.63495L2.21324 1.61097L2.22124 1.587L2.22606 1.5838L2.22924 1.579L2.23244 1.57421L2.23725 1.57101L2.24206 1.57421L2.24525 1.579L2.24845 1.5838L2.25325 1.587L2.25807 1.59019L2.26126 1.59499L2.26446 1.59978L2.26926 1.60298L2.27726 1.61896L2.28527 1.63495L2.29008 1.63815L2.29327 1.64294L2.50936 1.88271C2.65341 2.04255 2.82415 2.22104 3.02156 2.41818C3.21898 2.61531 3.32835 2.71761 3.34969 2.72508C3.37104 2.7336 3.39771 2.7581 3.42972 2.7986C3.46174 2.83804 3.56845 2.93235 3.74985 3.08153C3.93127 3.23071 4.16869 3.40388 4.46214 3.60102C4.7556 3.79815 5.08106 3.99263 5.43853 4.18444C5.79601 4.37625 6.18017 4.54941 6.59099 4.70393C7.00182 4.85845 7.28994 4.95968 7.45533 5.00763C7.62074 5.05559 7.90351 5.11685 8.30367 5.19145C8.70383 5.26605 9.0053 5.314 9.20804 5.33531C9.41079 5.35662 9.54952 5.36888 9.6242 5.37207L9.73625 5.37527L9.73306 5.35129L9.72824 5.32732L9.69623 5.12752C9.67489 4.99432 9.66422 4.80783 9.66422 4.56807C9.66422 4.3283 9.6829 4.10719 9.72024 3.90472C9.7576 3.70224 9.81362 3.49712 9.88831 3.28932C9.96301 3.08153 10.0361 2.91475 10.1076 2.78901C10.1802 2.66434 10.2751 2.52208 10.3925 2.36223C10.5099 2.20239 10.662 2.03723 10.8487 1.86672C11.0354 1.69622 11.2489 1.54437 11.4889 1.41117C11.729 1.27797 11.9505 1.17673 12.1532 1.10747C12.356 1.03821 12.5267 0.992908 12.6654 0.971601C12.8041 0.950294 12.8735 0.938034 12.8735 0.934837Z" fill="#F95F9F"/>
</svg>