<svg width="16" height="18" viewBox="0 0 16 18" fill="none" xmlns="http://www.w3.org/2000/svg">
    <path d="M7.84465 0.324219C9.80627 0.324219 11.6875 1.10347 13.0746 2.49054C14.4617 3.87762 15.2409 5.75889 15.2409 7.72051C15.2409 11.2547 12.8556 14.5078 8.17502 17.4861C8.07624 17.5488 7.96166 17.5821 7.84465 17.5821C7.72765 17.5821 7.61306 17.5488 7.51429 17.4861C2.83367 14.5078 0.448364 11.2547 0.448364 7.72051C0.448364 5.75889 1.22761 3.87762 2.61469 2.49054C4.00176 1.10347 5.88304 0.324219 7.84465 0.324219ZM7.84465 5.25508C7.19078 5.25508 6.56369 5.51483 6.10133 5.97719C5.63897 6.43955 5.37922 7.06664 5.37922 7.72051C5.37922 8.37438 5.63897 9.00147 6.10133 9.46383C6.56369 9.92619 7.19078 10.1859 7.84465 10.1859C8.49853 10.1859 9.12562 9.92619 9.58798 9.46383C10.0503 9.00147 10.3101 8.37438 10.3101 7.72051C10.3101 7.06664 10.0503 6.43955 9.58798 5.97719C9.12562 5.51483 8.49853 5.25508 7.84465 5.25508Z" fill="white"/>
</svg>