<svg width="373" height="282" viewBox="0 0 373 282" fill="none" xmlns="http://www.w3.org/2000/svg">
    <path d="M56.8893 268.742C56.6808 269.186 56.2118 269.433 55.7427 269.433C55.5603 269.433 55.3778 269.408 55.2215 269.334C52.9021 268.323 50.6349 267.262 48.4198 266.152C47.7944 265.831 47.5598 265.115 47.8986 264.523C48.2374 263.931 48.9931 263.709 49.6186 264.03C51.7555 265.115 53.9967 266.176 56.2639 267.163C56.8893 267.434 57.176 268.15 56.8893 268.742ZM52.4591 82.2238C52.9021 81.7057 52.7979 80.9409 52.2506 80.5461C51.7034 80.1267 50.8955 80.2254 50.4786 80.7435C48.8889 82.6185 47.3513 84.4936 45.8659 86.3687C45.449 86.8868 45.5532 87.6516 46.1005 88.0463C46.335 88.219 46.5956 88.293 46.8562 88.293C47.2471 88.293 47.6119 88.1203 47.8725 87.8243C49.358 85.9739 50.8955 84.0988 52.4591 82.2485V82.2238ZM43.2078 260.502C41.0969 259.243 39.0382 257.911 37.0837 256.554C36.5103 256.16 35.7285 256.283 35.3116 256.801C34.8946 257.344 35.0249 258.084 35.5722 258.479C37.5788 259.885 39.6897 261.242 41.8527 262.525C42.0611 262.648 42.2957 262.698 42.5302 262.698C42.9472 262.698 43.3641 262.5 43.5987 262.13C43.9635 261.563 43.8072 260.822 43.2078 260.477V260.502ZM34.5298 103.466C33.9565 103.096 33.1486 103.269 32.7838 103.812C31.3765 105.835 30.0214 107.833 28.7184 109.831C28.3535 110.399 28.536 111.139 29.1353 111.484C29.3438 111.608 29.5784 111.657 29.8129 111.657C30.2299 111.657 30.6468 111.46 30.8814 111.09C32.1844 109.116 33.5134 107.118 34.8946 105.119C35.2855 104.576 35.1292 103.812 34.5298 103.466ZM25.956 247.376C25.4609 246.908 24.653 246.883 24.1579 247.376C23.6627 247.845 23.6367 248.61 24.1579 249.079C25.9039 250.781 27.7542 252.434 29.6826 254.013C29.9172 254.21 30.2299 254.309 30.5165 254.309C30.8814 254.309 31.2202 254.161 31.4808 253.89C31.9498 253.396 31.8717 252.631 31.3505 252.187C29.4741 250.658 27.676 249.029 25.9821 247.376H25.956ZM70.0757 59.0817C68.3558 60.8581 66.6879 62.6098 65.0201 64.3615C64.551 64.8549 64.6031 65.6197 65.1243 66.0638C65.3589 66.2612 65.6716 66.3599 65.9582 66.3599C66.297 66.3599 66.6619 66.2118 66.8964 65.9651C68.5382 64.2134 70.206 62.4618 71.8999 60.7101C72.369 60.2166 72.3429 59.4518 71.8217 59.0077C71.3006 58.5636 70.4927 58.5883 70.0236 59.0817H70.0757ZM84.4869 275.848C82.0373 275.354 79.6137 274.787 77.2422 274.195C76.5647 273.997 75.8611 274.417 75.6786 275.033C75.4962 275.675 75.9132 276.341 76.5907 276.489C78.9883 277.106 81.464 277.649 83.9397 278.167C84.0179 278.167 84.1221 278.191 84.2003 278.191C84.7736 278.191 85.3209 277.797 85.4512 277.254C85.6075 276.612 85.1645 275.971 84.4869 275.823V275.848ZM61.8668 69.6166C61.3456 69.1971 60.5377 69.2465 60.0687 69.7399C58.4269 71.5656 56.8111 73.3913 55.2215 75.1924C54.7785 75.7105 54.8566 76.4506 55.3778 76.8947C55.6124 77.0674 55.899 77.1661 56.1857 77.1661C56.5505 77.1661 56.9154 77.0181 57.176 76.722C58.7396 74.921 60.3553 73.1199 61.9971 71.2942C62.4401 70.8008 62.388 70.036 61.8668 69.5919V69.6166ZM92.8522 38.7029C92.3571 38.2341 91.5492 38.2094 91.0541 38.6782C89.2299 40.3559 87.4578 42.0089 85.6857 43.6619C85.1906 44.1307 85.1906 44.8955 85.6857 45.3642C85.9202 45.611 86.259 45.7096 86.5717 45.7096C86.8845 45.7096 87.2233 45.5863 87.4578 45.3642C89.2038 43.7112 90.9759 42.0582 92.8001 40.4052C93.2952 39.9365 93.3213 39.1716 92.8262 38.7029H92.8522ZM70.1278 272.221C67.7303 271.481 65.3849 270.691 63.1177 269.877C62.4662 269.63 61.7365 269.951 61.4759 270.568C61.2153 271.185 61.5541 271.875 62.2056 272.122C64.4989 272.961 66.8964 273.775 69.346 274.515C69.4763 274.565 69.6066 274.565 69.7369 274.565C70.2842 274.565 70.7794 274.244 70.9357 273.726C71.1442 273.084 70.7794 272.418 70.1278 272.221ZM77.0598 55.529C78.7537 53.8266 80.4737 52.1243 82.2458 50.4219C82.7409 49.9532 82.7149 49.1884 82.2458 48.7196C81.7506 48.2508 80.9428 48.2755 80.4476 48.7196C78.6756 50.4466 76.9295 52.149 75.2356 53.8513C74.7665 54.3447 74.7665 55.0849 75.2877 55.5537C75.5223 55.7757 75.835 55.8744 76.1477 55.8744C76.4865 55.8744 76.8253 55.751 77.0598 55.5043V55.529ZM1.27713 191.372C1.98075 191.372 2.52801 190.853 2.55407 190.187C2.55407 187.868 2.68437 185.524 2.86679 183.181C2.91891 182.514 2.39771 181.947 1.69409 181.898C1.01653 181.873 0.391084 182.342 0.338964 183.008C0.130483 185.401 0.0262432 187.819 0.000183105 190.187C0.000183105 190.853 0.547445 191.396 1.25107 191.396L1.27713 191.372ZM3.54435 204.151C3.17951 201.882 2.91891 199.538 2.76255 197.194C2.71043 196.528 2.11105 196.034 1.40743 196.084C0.703805 196.133 0.182604 196.701 0.234724 197.367C0.391084 199.76 0.677745 202.178 1.04259 204.522C1.14683 205.114 1.66803 205.558 2.29347 205.558C2.34559 205.558 2.42377 205.558 2.47589 205.558C3.17951 205.459 3.64859 204.842 3.54435 204.201V204.151ZM2.26741 177.21C2.26741 177.21 2.39771 177.21 2.44983 177.21C3.07527 177.21 3.62253 176.766 3.70071 176.174C4.03949 173.904 4.45646 171.56 4.9516 169.241C5.0819 168.6 4.63888 167.958 3.96131 167.835C3.28375 167.711 2.60619 168.131 2.47589 168.772C1.98075 171.141 1.53773 173.509 1.19895 175.828C1.09471 176.494 1.58985 177.087 2.26741 177.185V177.21ZM5.0819 163.27C5.0819 163.27 5.29038 163.32 5.39462 163.32C5.96794 163.32 6.46308 162.95 6.61944 162.432C7.21882 160.211 7.92245 157.917 8.67819 155.672C8.88667 155.03 8.52183 154.364 7.84427 154.167C7.1667 153.969 6.46308 154.315 6.2546 154.956C5.49886 157.251 4.79524 159.57 4.1698 161.839C3.98737 162.481 4.40434 163.147 5.0819 163.295V163.27ZM38.0479 99.7654C38.4388 99.7654 38.8558 99.5927 39.0903 99.2473C40.4975 97.3476 41.9308 95.4232 43.4163 93.4741C43.8332 92.9313 43.7029 92.1912 43.1296 91.7964C42.5563 91.4017 41.7745 91.525 41.3575 92.0678C39.846 94.0169 38.4127 95.9413 37.0055 97.8904C36.6146 98.4331 36.7449 99.1733 37.3182 99.568C37.5267 99.7161 37.7873 99.7901 38.0479 99.7901V99.7654ZM16.6526 236.545C16.2617 236.003 15.4799 235.855 14.8805 236.225C14.3072 236.595 14.1508 237.335 14.5417 237.902C15.949 239.876 17.4865 241.825 19.0762 243.676C19.3368 243.972 19.7016 244.12 20.0664 244.12C20.3531 244.12 20.6398 244.021 20.8743 243.848C21.4216 243.429 21.4997 242.664 21.0567 242.171C19.4931 240.37 18.0077 238.47 16.6526 236.57V236.545ZM15.0629 136.526C15.2453 136.6 15.4017 136.625 15.5841 136.625C16.0793 136.625 16.5223 136.354 16.7308 135.934C17.7471 133.837 18.8156 131.715 19.9361 129.569C20.2489 128.977 19.9883 128.261 19.3628 127.965C18.7374 127.669 17.9816 127.916 17.6689 128.508C16.5223 130.679 15.4277 132.826 14.4114 134.947C14.1247 135.539 14.4114 136.255 15.0368 136.526H15.0629ZM4.9516 211.035C4.79524 210.393 4.11767 209.974 3.44011 210.147C2.76255 210.295 2.34559 210.936 2.50195 211.578C3.07527 213.922 3.77889 216.265 4.5607 218.51C4.74312 219.004 5.23826 219.325 5.75946 219.325C5.88976 219.325 6.02006 219.325 6.15036 219.275C6.80186 219.078 7.1667 218.387 6.95822 217.77C6.20248 215.574 5.52492 213.305 4.9516 211.035ZM13.0823 140.844C12.4308 140.597 11.7012 140.893 11.4406 141.485C10.4763 143.73 9.56423 145.951 8.70425 148.147C8.46971 148.763 8.80849 149.454 9.45999 149.676C9.59029 149.726 9.74665 149.75 9.90301 149.75C10.4242 149.75 10.9194 149.454 11.1018 148.961C11.9357 146.79 12.8217 144.594 13.786 142.373C14.0466 141.757 13.7338 141.066 13.1084 140.819L13.0823 140.844ZM9.56423 224.308C9.27757 223.691 8.54789 223.42 7.89639 223.691C7.24488 223.963 6.95822 224.654 7.24488 225.27C8.26123 227.466 9.38181 229.637 10.6066 231.759C10.8412 232.154 11.2581 232.376 11.7272 232.376C11.9357 232.376 12.1442 232.327 12.3266 232.228C12.952 231.907 13.1605 231.192 12.8217 230.6C11.649 228.552 10.5545 226.455 9.56423 224.333V224.308ZM26.6075 115.506C26.0081 115.161 25.2263 115.358 24.8615 115.95C23.5846 118.047 22.3597 120.12 21.161 122.167C20.8222 122.759 21.0567 123.475 21.6822 123.796C21.8646 123.894 22.0731 123.944 22.2815 123.944C22.7246 123.944 23.1676 123.722 23.4021 123.327C24.5748 121.279 25.7997 119.231 27.0505 117.159C27.4154 116.592 27.2069 115.851 26.5815 115.531L26.6075 115.506ZM270.843 239.284C268.654 240.444 266.464 241.554 264.275 242.664C263.65 242.985 263.415 243.7 263.754 244.292C263.989 244.687 264.432 244.934 264.875 244.934C265.083 244.934 265.292 244.885 265.474 244.786C267.663 243.676 269.878 242.541 272.093 241.381C272.693 241.06 272.927 240.32 272.589 239.753C272.25 239.185 271.468 238.963 270.869 239.284H270.843ZM244.157 252.089C241.864 253.076 239.597 254.038 237.329 254.975C236.678 255.247 236.391 255.937 236.678 256.554C236.886 256.998 237.355 257.27 237.851 257.27C238.007 257.27 238.189 257.245 238.346 257.171C240.639 256.234 242.932 255.247 245.225 254.26C245.851 253.988 246.138 253.273 245.851 252.681C245.564 252.089 244.809 251.817 244.183 252.089H244.157ZM257.63 245.921C255.389 247.006 253.148 248.042 250.933 249.054C250.307 249.35 250.047 250.066 250.333 250.658C250.542 251.077 251.011 251.324 251.48 251.324C251.662 251.324 251.845 251.274 252.027 251.2C254.268 250.164 256.51 249.128 258.777 248.042C259.402 247.746 259.637 247.031 259.324 246.439C259.011 245.847 258.256 245.6 257.63 245.921ZM202.331 267.36C199.933 268.076 197.536 268.742 195.164 269.384C194.487 269.556 194.096 270.222 194.304 270.864C194.46 271.382 194.982 271.727 195.529 271.727C195.633 271.727 195.763 271.727 195.868 271.678C198.265 271.037 200.663 270.346 203.086 269.63C203.764 269.433 204.129 268.767 203.92 268.125C203.712 267.484 203.008 267.138 202.331 267.336V267.36ZM230.449 257.738C228.13 258.651 225.811 259.515 223.491 260.354C222.84 260.6 222.501 261.291 222.762 261.908C222.944 262.377 223.439 262.673 223.934 262.673C224.091 262.673 224.247 262.648 224.404 262.599C226.723 261.76 229.068 260.872 231.388 259.959C232.039 259.712 232.352 258.997 232.065 258.405C231.805 257.788 231.049 257.492 230.423 257.763L230.449 257.738ZM216.507 262.846C214.136 263.66 211.79 264.425 209.445 265.189C208.794 265.411 208.429 266.078 208.637 266.719C208.82 267.212 209.315 267.533 209.836 267.533C209.966 267.533 210.097 267.533 210.253 267.459C212.624 266.694 214.996 265.93 217.367 265.115C218.019 264.893 218.358 264.202 218.123 263.586C217.888 262.969 217.159 262.648 216.507 262.87V262.846ZM283.794 232.179C281.631 233.412 279.495 234.596 277.358 235.781C276.758 236.101 276.55 236.842 276.888 237.409C277.123 237.804 277.54 238.001 277.983 238.001C278.191 238.001 278.426 237.952 278.608 237.828C280.771 236.644 282.934 235.435 285.097 234.202C285.697 233.856 285.879 233.116 285.54 232.549C285.176 231.981 284.394 231.809 283.794 232.129V232.179ZM308.864 216.709C306.805 218.066 304.747 219.399 302.688 220.731C302.115 221.101 301.958 221.841 302.349 222.409C302.584 222.754 303.001 222.927 303.392 222.927C303.626 222.927 303.887 222.853 304.095 222.729C306.154 221.397 308.239 220.065 310.298 218.683C310.871 218.313 311.001 217.548 310.61 217.005C310.219 216.463 309.411 216.339 308.838 216.709H308.864ZM322.754 208.642C322.337 208.124 321.529 208 320.982 208.395C318.976 209.826 316.969 211.208 314.962 212.589C314.389 212.984 314.259 213.724 314.676 214.267C314.936 214.588 315.301 214.76 315.692 214.76C315.953 214.76 316.213 214.686 316.448 214.538C318.454 213.157 320.487 211.75 322.494 210.319C323.041 209.925 323.171 209.16 322.754 208.642ZM296.46 224.654C294.349 225.961 292.264 227.22 290.153 228.478C289.554 228.823 289.371 229.563 289.762 230.131C289.997 230.501 290.414 230.698 290.831 230.698C291.065 230.698 291.3 230.649 291.508 230.526C293.619 229.267 295.73 227.984 297.841 226.677C298.44 226.307 298.597 225.567 298.206 225.024C297.815 224.481 297.033 224.308 296.46 224.678V224.654ZM114.065 279.376C111.563 279.277 109.088 279.129 106.612 278.932C105.882 278.833 105.309 279.376 105.257 280.017C105.205 280.683 105.726 281.251 106.403 281.3C108.879 281.497 111.407 281.645 113.935 281.744H113.987C114.665 281.744 115.212 281.251 115.264 280.609C115.29 279.943 114.743 279.376 114.065 279.351V279.376ZM126.209 11.9094C126.756 11.4899 126.809 10.7251 126.365 10.207C125.922 9.71358 125.115 9.63956 124.567 10.059C122.639 11.6133 120.737 13.143 118.86 14.6726C118.339 15.1167 118.261 15.8568 118.73 16.375C118.99 16.6463 119.329 16.7944 119.694 16.7944C119.981 16.7944 120.293 16.6957 120.528 16.4983C122.404 14.9687 124.307 13.439 126.235 11.8847L126.209 11.9094ZM113.179 19.3602C111.277 20.9392 109.4 22.5182 107.576 24.0972C107.055 24.5413 107.003 25.3061 107.472 25.7996C107.733 26.0709 108.071 26.1943 108.41 26.1943C108.723 26.1943 109.009 26.0956 109.27 25.8982C111.094 24.3192 112.971 22.7649 114.873 21.1859C115.394 20.7418 115.446 20.0017 114.977 19.4836C114.508 18.9902 113.7 18.9408 113.179 19.3849V19.3602ZM187.945 271.234C185.522 271.826 183.098 272.394 180.701 272.936C180.023 273.084 179.606 273.726 179.763 274.367C179.893 274.91 180.414 275.305 180.987 275.305C181.092 275.305 181.17 275.305 181.274 275.28C183.698 274.737 186.147 274.17 188.597 273.578C189.275 273.405 189.691 272.764 189.509 272.122C189.327 271.481 188.623 271.086 187.972 271.259L187.945 271.234ZM128.971 279.474C127.043 279.524 125.141 279.548 123.264 279.548H121.518C120.867 279.45 120.241 280.066 120.241 280.733C120.241 281.399 120.789 281.941 121.492 281.941H123.264C125.167 281.941 127.095 281.941 129.05 281.867C129.753 281.867 130.301 281.3 130.274 280.634C130.274 279.968 129.701 279.474 128.971 279.474ZM99.2109 278.191C96.7091 277.895 94.2595 277.55 91.8359 277.18C91.1583 277.081 90.4808 277.501 90.3765 278.167C90.2462 278.833 90.7153 279.45 91.4189 279.548C93.8686 279.943 96.3703 280.288 98.8982 280.585C98.9503 280.585 99.0024 280.585 99.0545 280.585C99.68 280.585 100.227 280.14 100.305 279.524C100.384 278.858 99.8885 278.265 99.2109 278.191ZM102.025 28.8835C100.175 30.5119 98.3248 32.1402 96.5267 33.7439C96.0316 34.2126 96.0055 34.9528 96.4746 35.4462C96.7352 35.6929 97.0479 35.8163 97.3867 35.8163C97.6994 35.8163 98.0121 35.7176 98.2467 35.4955C100.045 33.8919 101.869 32.2635 103.719 30.6599C104.24 30.2158 104.267 29.451 103.797 28.9575C103.328 28.4641 102.521 28.4394 101.999 28.8835H102.025ZM158.706 276.933C156.23 277.279 153.755 277.599 151.305 277.895C150.601 277.969 150.106 278.561 150.21 279.228C150.289 279.844 150.836 280.288 151.461 280.288C151.513 280.288 151.566 280.288 151.618 280.288C154.093 280.017 156.569 279.696 159.097 279.326C159.801 279.228 160.27 278.611 160.165 277.969C160.061 277.303 159.436 276.859 158.732 276.958L158.706 276.933ZM173.404 274.441C170.954 274.91 168.505 275.379 166.055 275.774C165.377 275.897 164.908 276.514 165.039 277.155C165.143 277.747 165.69 278.142 166.29 278.142C166.368 278.142 166.446 278.142 166.524 278.142C168.974 277.723 171.449 277.279 173.925 276.785C174.603 276.662 175.046 276.02 174.915 275.354C174.785 274.713 174.108 274.293 173.43 274.417L173.404 274.441ZM137.936 1.1525C137.493 0.634391 136.685 0.560367 136.164 0.979787C134.21 2.48476 132.255 3.98974 130.353 5.49472C129.805 5.91414 129.727 6.67896 130.196 7.19706C130.457 7.49312 130.822 7.64116 131.187 7.64116C131.473 7.64116 131.76 7.54247 131.994 7.36977C133.897 5.86479 135.825 4.38449 137.78 2.87951C138.327 2.46009 138.405 1.69527 137.962 1.20183L137.936 1.1525ZM143.852 278.635C141.35 278.858 138.874 279.03 136.399 279.154C135.695 279.203 135.174 279.77 135.2 280.412C135.252 281.053 135.799 281.547 136.451 281.547H136.529C139.005 281.399 141.532 281.226 144.06 281.004C144.764 280.955 145.259 280.362 145.207 279.696C145.155 279.03 144.529 278.586 143.826 278.611L143.852 278.635Z" fill="white"/>
    <path d="M364.937 184.333C368.655 181.4 372.688 177.166 372.038 176.378C371.387 175.589 366.313 178.522 362.595 181.473C362.261 181.748 361.926 182.005 361.61 182.262C360.959 182.152 359.603 181.932 357.874 181.657C357.892 181.657 357.93 181.657 357.948 181.657L358.952 180.869C359.082 180.777 359.082 180.575 358.952 180.447L358.171 179.494C358.06 179.347 357.874 179.31 357.744 179.42L356.74 180.209C356.74 180.209 356.666 180.319 356.647 180.392L355.476 181.308C354.008 181.07 352.409 180.814 350.829 180.557L351.814 179.787C351.944 179.695 351.944 179.494 351.814 179.365L351.034 178.412C350.922 178.266 350.736 178.229 350.606 178.339L349.602 179.127C349.602 179.127 349.528 179.237 349.509 179.31L348.376 180.19C344.361 179.549 340.996 179.036 340.885 179.072C340.606 179.164 339.175 180.374 339.175 180.374C338.822 180.649 338.58 180.905 338.599 180.942C338.636 180.979 339.045 180.704 339.379 180.447L346.759 183.105C346.498 183.343 346.35 183.563 346.405 183.636C346.48 183.728 346.814 183.563 347.149 183.288L347.186 183.252L348.636 183.783C348.394 184.003 348.246 184.223 348.301 184.296C348.376 184.388 348.71 184.223 349.045 183.948L350.365 184.406L351.164 184.975C350.866 185.231 350.662 185.488 350.718 185.561C350.792 185.653 351.127 185.488 351.461 185.213H351.48L353.06 186.313C352.762 186.569 352.558 186.826 352.632 186.899C352.707 186.991 353.041 186.826 353.376 186.551L354.826 187.578C352.353 189.576 351.387 190.382 349.547 191.849C347.688 193.315 345.996 194.855 344.64 196.23C342.446 195.9 338.115 195.185 338.115 195.185L337 195.918L341.703 199.511C341.442 199.859 341.238 200.134 341.126 200.354C340.402 201.014 339.974 201.454 340.03 201.527C340.086 201.6 340.606 201.307 341.387 200.757C341.628 200.684 341.963 200.519 342.39 200.317L344.937 205.688L345.922 204.79C345.922 204.79 346.182 200.171 346.331 198.063C347.93 197.073 349.751 195.9 351.647 194.598C353.952 192.783 354.993 192.014 357.13 190.364L357.818 191.977C357.465 192.27 357.242 192.545 357.316 192.637C357.372 192.71 357.669 192.582 358.004 192.344L358.766 194.122H358.748C358.394 194.415 358.171 194.708 358.246 194.781C358.301 194.855 358.617 194.727 358.933 194.488L359.324 195.368L359.51 196.743C359.156 197.018 358.933 197.311 359.008 197.403C359.064 197.476 359.305 197.384 359.584 197.183L359.788 198.704H359.751C359.398 198.998 359.175 199.291 359.249 199.382C359.305 199.456 359.565 199.346 359.844 199.144L360.848 206.825C360.532 207.1 360.16 207.43 360.179 207.466C360.216 207.503 360.513 207.32 360.867 207.045C360.867 207.045 362.391 205.926 362.521 205.688C362.577 205.597 362.8 202.242 363.06 198.246L364.194 197.366C364.194 197.366 364.342 197.366 364.398 197.329L365.402 196.541C365.532 196.45 365.532 196.248 365.402 196.12L364.621 195.166C364.51 195.02 364.324 194.983 364.194 195.093L363.209 195.863C363.301 194.287 363.394 192.71 363.487 191.225L364.658 190.309C364.658 190.309 364.807 190.309 364.863 190.272L365.867 189.484C365.997 189.392 365.997 189.191 365.867 189.062L365.086 188.109C364.974 187.963 364.789 187.926 364.658 188.036L363.655 188.824C363.655 188.824 363.655 188.861 363.617 188.897C363.729 187.193 363.803 185.854 363.841 185.195C364.157 184.938 364.491 184.681 364.844 184.406L364.937 184.333Z" fill="white"/>
</svg>