<svg width="25" height="25" viewBox="0 0 25 25" fill="none" xmlns="http://www.w3.org/2000/svg">
    <path d="M12.7195 2.62598C7.27579 2.62598 2.85774 7.04403 2.85774 12.4877C2.85774 17.9314 7.27579 22.3494 12.7195 22.3494C18.1632 22.3494 22.5812 17.9314 22.5812 12.4877C22.5812 7.04403 18.173 2.62598 12.7195 2.62598ZM15.678 14.6869L12.818 16.3338C12.463 16.5409 12.0686 16.6395 11.6839 16.6395C11.2896 16.6395 10.9049 16.5409 10.5499 16.3338C9.83984 15.9196 9.41579 15.1898 9.41579 14.3614V11.0577C9.41579 10.2392 9.83984 9.4996 10.5499 9.08541C11.26 8.67121 12.108 8.67121 12.8279 9.08541L15.6878 10.7323C16.3978 11.1465 16.8219 11.8763 16.8219 12.7047C16.8219 13.533 16.3978 14.2727 15.678 14.6869Z" fill="#5D50C6"/>
</svg>