<svg width="90" height="97" viewBox="0 0 90 97" fill="none" xmlns="http://www.w3.org/2000/svg">
    <rect opacity="0.08" x="0.761169" y="0.0180664" width="88.7555" height="88.7555" rx="44.3778" fill="url(#paint0_linear_11_633)"/>
    <g filter="url(#filter0_dddd_11_633)">
    <path d="M31.502 27.4751C28.2476 27.4751 25.3483 28.836 23.159 30.9661C21.0288 33.0963 19.6679 35.9956 19.6679 39.3092C19.6679 42.5635 21.0288 45.4629 23.159 47.6522L43.336 67.8293L63.5131 47.6522C65.6433 45.5221 67.0042 42.6227 67.0042 39.3092C67.0042 36.0548 65.6433 33.1554 63.5131 30.9661C61.383 28.836 58.4837 27.4751 55.1701 27.4751C51.9157 27.4751 49.0164 28.836 46.8271 30.9661C44.697 33.0963 43.336 35.9956 43.336 39.3092C43.336 36.0548 41.9751 33.1554 39.845 30.9661C37.7149 28.836 34.8155 27.4751 31.502 27.4751Z" fill="url(#paint1_linear_11_633)"/>
    </g>
    <defs>
    <filter id="filter0_dddd_11_633" x="11.7785" y="25.5028" width="63.115" height="70.9253" filterUnits="userSpaceOnUse" color-interpolation-filters="sRGB">
    <feFlood flood-opacity="0" result="BackgroundImageFix"/>
    <feColorMatrix in="SourceAlpha" type="matrix" values="0 0 0 0 0 0 0 0 0 0 0 0 0 0 0 0 0 0 127 0" result="hardAlpha"/>
    <feOffset dy="0.986172"/>
    <feGaussianBlur stdDeviation="1.47926"/>
    <feColorMatrix type="matrix" values="0 0 0 0 0 0 0 0 0 0 0 0 0 0 0 0 0 0 0.1 0"/>
    <feBlend mode="normal" in2="BackgroundImageFix" result="effect1_dropShadow_11_633"/>
    <feColorMatrix in="SourceAlpha" type="matrix" values="0 0 0 0 0 0 0 0 0 0 0 0 0 0 0 0 0 0 127 0" result="hardAlpha"/>
    <feOffset dy="4.93086"/>
    <feGaussianBlur stdDeviation="2.46543"/>
    <feColorMatrix type="matrix" values="0 0 0 0 0 0 0 0 0 0 0 0 0 0 0 0 0 0 0.09 0"/>
    <feBlend mode="normal" in2="effect1_dropShadow_11_633" result="effect2_dropShadow_11_633"/>
    <feColorMatrix in="SourceAlpha" type="matrix" values="0 0 0 0 0 0 0 0 0 0 0 0 0 0 0 0 0 0 127 0" result="hardAlpha"/>
    <feOffset dy="11.8341"/>
    <feGaussianBlur stdDeviation="3.4516"/>
    <feColorMatrix type="matrix" values="0 0 0 0 0 0 0 0 0 0 0 0 0 0 0 0 0 0 0.05 0"/>
    <feBlend mode="normal" in2="effect2_dropShadow_11_633" result="effect3_dropShadow_11_633"/>
    <feColorMatrix in="SourceAlpha" type="matrix" values="0 0 0 0 0 0 0 0 0 0 0 0 0 0 0 0 0 0 127 0" result="hardAlpha"/>
    <feOffset dy="20.7096"/>
    <feGaussianBlur stdDeviation="3.94469"/>
    <feColorMatrix type="matrix" values="0 0 0 0 0 0 0 0 0 0 0 0 0 0 0 0 0 0 0.01 0"/>
    <feBlend mode="normal" in2="effect3_dropShadow_11_633" result="effect4_dropShadow_11_633"/>
    <feBlend mode="normal" in="SourceGraphic" in2="effect4_dropShadow_11_633" result="shape"/>
    </filter>
    <linearGradient id="paint0_linear_11_633" x1="0.761169" y1="0.0180664" x2="89.5167" y2="88.7736" gradientUnits="userSpaceOnUse">
    <stop stop-color="#F85E9F"/>
    <stop offset="1" stop-color="#F986B7"/>
    </linearGradient>
    <linearGradient id="paint1_linear_11_633" x1="43.336" y1="27.4751" x2="43.336" y2="67.8293" gradientUnits="userSpaceOnUse">
    <stop stop-color="#8954BC"/>
    <stop offset="1" stop-color="#F85E9F"/>
    </linearGradient>
    </defs>
</svg>