<svg width="22" height="16" viewBox="0 0 22 16" fill="none" xmlns="http://www.w3.org/2000/svg">
    <path d="M11.6062 15.0156L7.6002 14.9408C6.30314 14.9147 5.00285 14.9668 3.73122 14.6965C1.79678 14.2926 1.65974 12.3125 1.51634 10.6515C1.31874 8.31643 1.39524 5.93895 1.76812 3.62334C1.97862 2.32404 2.80704 1.54874 4.08815 1.46438C8.41287 1.15819 12.7663 1.19448 17.0815 1.33732C17.5372 1.35042 17.9961 1.42199 18.4454 1.50346C20.6636 1.90081 20.7177 4.14474 20.8615 6.03371C21.0049 7.94217 20.9444 9.86043 20.6703 11.7559C20.4504 13.3253 20.0297 14.6414 18.2542 14.7684C16.0296 14.9346 13.8561 15.0683 11.6253 15.0257C11.6254 15.0156 11.6126 15.0156 11.6062 15.0156ZM9.25107 11.0424C10.9275 10.0588 12.5719 9.09153 14.2387 8.11451C12.5592 7.13089 10.9179 6.16366 9.25107 5.18664V11.0424Z" fill="#F95F9F"/>
</svg>