<svg width="19" height="19" viewBox="0 0 19 19" fill="none" xmlns="http://www.w3.org/2000/svg">
    <path d="M0.878754 3.13617C0.878754 2.56694 1.07866 2.09733 1.47845 1.72735C1.87825 1.35735 2.398 1.17236 3.03767 1.17236C3.66593 1.17236 4.17424 1.3545 4.56262 1.71881C4.96242 2.0945 5.16232 2.58402 5.16232 3.1874C5.16232 3.73385 4.96814 4.18921 4.57976 4.55352C4.17996 4.92921 3.65451 5.11705 3.0034 5.11705H2.98627C2.35801 5.11705 1.8497 4.92921 1.46132 4.55352C1.07294 4.17784 0.878754 3.70538 0.878754 3.13617ZM1.1015 18.0782V6.67102H4.90531V18.0782H1.1015ZM7.01282 18.0782H10.8166V11.7086C10.8166 11.3101 10.8623 11.0028 10.9537 10.7865C11.1136 10.3994 11.3564 10.0721 11.6819 9.80457C12.0075 9.53703 12.4158 9.40327 12.907 9.40327C14.1864 9.40327 14.826 10.2628 14.826 11.9818V18.0782H18.6299V11.5378C18.6299 9.85295 18.2301 8.57506 17.4305 7.70415C16.6309 6.83325 15.5742 6.39779 14.2606 6.39779C12.7871 6.39779 11.6391 7.02963 10.8166 8.29329V8.32745H10.7995L10.8166 8.29329V6.67102H7.01282C7.03566 7.03531 7.04709 8.16805 7.04709 10.0693C7.04709 11.9704 7.03566 14.6401 7.01282 18.0782Z" fill="#F95F9F"/>
</svg>