<svg width="20" height="20" viewBox="0 0 20 20" fill="none" xmlns="http://www.w3.org/2000/svg">
    <path fill-rule="evenodd" clip-rule="evenodd" d="M1.44577 10.1321C1.44577 6.58672 1.44577 4.814 2.29062 3.53717C2.66788 2.967 3.15618 2.4787 3.72635 2.10144C5.00318 1.25659 6.77589 1.25659 10.3213 1.25659C13.8667 1.25659 15.6395 1.25659 16.9163 2.10144C17.4865 2.4787 17.9748 2.967 18.352 3.53717C19.1969 4.814 19.1969 6.58672 19.1969 10.1321C19.1969 13.6776 19.1969 15.4503 18.352 16.7271C17.9748 17.2973 17.4865 17.7856 16.9163 18.1628C15.6395 19.0077 13.8667 19.0077 10.3213 19.0077C6.77589 19.0077 5.00318 19.0077 3.72635 18.1628C3.15618 17.7856 2.66788 17.2973 2.29062 16.7271C1.44577 15.4503 1.44577 13.6776 1.44577 10.1321ZM14.9158 10.1322C14.9158 12.6699 12.8586 14.7271 10.3208 14.7271C7.78311 14.7271 5.72587 12.6699 5.72587 10.1322C5.72587 7.59442 7.78311 5.53718 10.3208 5.53718C12.8586 5.53718 14.9158 7.59442 14.9158 10.1322ZM10.3208 13.1725C12 13.1725 13.3612 11.8113 13.3612 10.1322C13.3612 8.45301 12 7.09179 10.3208 7.09179C8.6417 7.09179 7.28048 8.45301 7.28048 10.1322C7.28048 11.8113 8.6417 13.1725 10.3208 13.1725ZM15.0978 6.38648C15.6943 6.38648 16.1778 5.90295 16.1778 5.30647C16.1778 4.70999 15.6943 4.22646 15.0978 4.22646C14.5013 4.22646 14.0178 4.70999 14.0178 5.30647C14.0178 5.90295 14.5013 6.38648 15.0978 6.38648Z" fill="#F95F9F"/>
</svg>