<svg width="25" height="25" viewBox="0 0 25 25" fill="none" xmlns="http://www.w3.org/2000/svg">
    <path fill-rule="evenodd" clip-rule="evenodd" d="M11.3576 4.22454C10.6965 4.22454 10.1341 4.68392 9.97624 5.30309H15.2845C15.1267 4.68392 14.5643 4.22454 13.9031 4.22454H11.3576ZM16.7842 5.30308H18.7378C20.8098 5.30308 22.497 7.01077 22.497 9.10794C22.497 9.10794 22.4379 9.99574 22.4181 11.2321C22.4162 11.3299 22.3687 11.4258 22.2908 11.4838C21.8163 11.8343 21.3821 12.1239 21.3426 12.1438C19.7048 13.2423 17.8015 14.0153 15.7739 14.3998C15.6417 14.4257 15.5115 14.3569 15.4443 14.239C14.876 13.2543 13.8144 12.6132 12.6304 12.6132C11.4543 12.6132 10.3828 13.2473 9.79766 14.233C9.72958 14.3489 9.60131 14.4158 9.47009 14.3908C7.45926 14.0053 5.55598 13.2333 3.92799 12.1538L2.98079 11.4947C2.90186 11.4448 2.85252 11.3549 2.85252 11.2551C2.82292 10.7457 2.77358 9.10794 2.77358 9.10794C2.77358 7.01077 4.46079 5.30308 6.53278 5.30308H8.47651C8.66398 3.85504 9.87758 2.72656 11.3576 2.72656H13.9031C15.3832 2.72656 16.5968 3.85504 16.7842 5.30308ZM22.1615 13.3922L22.1221 13.4122C20.129 14.7504 17.7315 15.6392 15.2154 16.0087C14.8602 16.0586 14.505 15.8289 14.4064 15.4695C14.1893 14.6506 13.4887 14.1112 12.6501 14.1112H12.6402H12.6205C11.7819 14.1112 11.0813 14.6506 10.8642 15.4695C10.7656 15.8289 10.4104 16.0586 10.0552 16.0087C7.53918 15.6392 5.14158 14.7504 3.14852 13.4122C3.13866 13.4023 3.03999 13.3423 2.96106 13.3922C2.87225 13.4422 2.87225 13.562 2.87225 13.562L2.94132 18.6551C2.94132 20.7523 4.61865 22.45 6.69065 22.45H18.5701C20.6421 22.45 22.3194 20.7523 22.3194 18.6551L22.3984 13.562C22.3984 13.562 22.3984 13.4422 22.3096 13.3922C22.2603 13.3623 22.2011 13.3723 22.1615 13.3922ZM13.3704 17.5766C13.3704 17.9961 13.0448 18.3255 12.6304 18.3255C12.2258 18.3255 11.8904 17.9961 11.8904 17.5766V16.2883C11.8904 15.8788 12.2258 15.5393 12.6304 15.5393C13.0448 15.5393 13.3704 15.8788 13.3704 16.2883V17.5766Z" fill="#F85E9F"/>
</svg>