<svg width="223" height="314" viewBox="0 0 223 314" fill="none" xmlns="http://www.w3.org/2000/svg">
    <path d="M42.1258 247.77C42.1258 241.479 36.9521 236.376 30.572 236.376C24.1918 236.376 19.0182 241.479 19.0182 247.77C19.0182 247.77 18.4962 251.729 23.0666 258.158C25.1199 261.052 30.572 269.643 30.572 269.643C30.572 269.643 36.024 261.052 38.0773 258.158C42.6478 251.729 42.1258 247.77 42.1258 247.77ZM30.572 256.282C25.9203 256.282 22.1502 252.564 22.1502 247.976C22.1502 243.389 25.9203 239.671 30.572 239.671C35.2236 239.671 38.9937 243.389 38.9937 247.976C38.9937 252.564 35.2236 256.282 30.572 256.282Z" fill="white"/>
    <path d="M57.3091 29.9416C54.765 28.5182 52.1884 27.0948 49.5791 25.6978C48.8615 25.3024 48.6332 24.5117 49.1224 23.9318C49.6116 23.3519 50.5902 23.1674 51.3077 23.5628C53.9496 24.9598 56.5589 26.3831 59.1029 27.8329C59.8205 28.2282 60.0163 29.0454 59.4944 29.6253C59.2009 29.9943 58.6789 30.1788 58.1897 30.1788C57.8635 30.1788 57.57 30.0997 57.2764 29.9416H57.3091ZM43.4146 19.4244C40.7727 18.0801 38.0982 16.7358 35.3911 15.4179C34.6409 15.0489 33.6625 15.2334 33.2058 15.866C32.7492 16.4723 33.0101 17.263 33.7603 17.632C36.4348 18.95 39.1093 20.2679 41.7186 21.6122C41.9795 21.744 42.2731 21.8231 42.5666 21.8231C43.0885 21.8231 43.6104 21.6122 43.9039 21.2168C44.3605 20.6106 44.1648 19.8198 43.4146 19.4508V19.4244ZM102.319 58.4881C102.743 58.4881 103.167 58.3563 103.493 58.0663C104.081 57.5391 104.048 56.722 103.396 56.2476C101.08 54.5606 98.7315 52.8736 96.3505 51.1867C95.6982 50.7122 94.6871 50.7913 94.1 51.3185C93.5129 51.8457 93.6107 52.6628 94.2631 53.1372C96.644 54.7978 98.9598 56.4848 101.243 58.1718C101.536 58.409 101.928 58.5144 102.319 58.5144V58.4881ZM90.1535 290.761C87.5768 289.443 84.9676 288.072 82.3257 286.649C81.6081 286.254 80.6295 286.412 80.1077 286.992C79.6184 287.572 79.8142 288.362 80.5317 288.784C83.2062 290.234 85.8482 291.631 88.4249 292.949C88.6858 293.081 88.9793 293.133 89.2728 293.133C89.7947 293.133 90.3165 292.922 90.6101 292.527C91.0667 291.921 90.8384 291.13 90.1208 290.761H90.1535ZM27.2697 11.5959C24.5625 10.3307 21.8227 9.09182 19.0504 7.87932C18.2676 7.53665 17.3218 7.77388 16.8978 8.38014C16.4738 9.01274 16.7672 9.77715 17.5174 10.1198C20.2572 11.3323 22.9969 12.5712 25.6714 13.81C25.9324 13.9155 26.1934 13.9682 26.4543 13.9682C27.0088 13.9682 27.5306 13.731 27.8241 13.3356C28.2481 12.7293 27.9872 11.9386 27.237 11.5959H27.2697ZM88.1313 48.5508C88.5879 48.5508 89.0446 48.3927 89.3381 48.0764C89.8926 47.5228 89.7947 46.7321 89.1424 46.284C86.7288 44.6761 84.3152 43.0682 81.8363 41.4867C81.1514 41.0649 80.1403 41.144 79.6185 41.6976C79.064 42.2511 79.1945 43.0682 79.8795 43.4899C82.3257 45.0715 84.7392 46.653 87.1528 48.2609C87.4463 48.4717 87.8051 48.5508 88.1639 48.5508H88.1313ZM67.1591 277.819C66.4742 277.397 65.4631 277.503 64.9412 278.056C64.4194 278.61 64.5498 279.427 65.2348 279.849C67.7788 281.43 70.3229 282.933 72.8017 284.382C73.0953 284.54 73.4214 284.619 73.715 284.619C74.2042 284.619 74.6935 284.435 74.987 284.092C75.5089 283.512 75.3458 282.722 74.6282 282.3C72.1494 280.85 69.638 279.348 67.1265 277.793L67.1591 277.819ZM72.443 38.8508C72.7365 39.0353 73.0626 39.1144 73.3888 39.1144C73.878 39.1144 74.3347 38.9299 74.6609 38.6136C75.1827 38.06 75.0523 37.2429 74.3673 36.8212C71.8885 35.2924 69.3444 33.7899 66.8004 32.2875C66.1154 31.8658 65.1044 31.9975 64.5825 32.5774C64.0606 33.1573 64.2237 33.9481 64.9412 34.3698C67.4853 35.8459 69.9968 37.3484 72.443 38.8772V38.8508ZM52.5472 268.356C51.8622 267.908 50.8837 267.961 50.2966 268.514C49.7422 269.068 49.8074 269.859 50.4923 270.333C52.9385 271.994 55.3848 273.602 57.7657 275.157C58.0593 275.341 58.418 275.447 58.7442 275.447C59.2008 275.447 59.6575 275.288 59.9836 274.972C60.5381 274.419 60.4076 273.602 59.7226 273.18C57.3417 271.625 54.9281 270.043 52.4819 268.383L52.5472 268.356ZM213.344 203.646C214.095 206.123 214.78 208.575 215.399 211C215.562 211.606 216.215 212.028 216.965 212.028C217.063 212.028 217.193 212.028 217.291 212.028C218.139 211.896 218.693 211.21 218.53 210.525C217.911 208.074 217.226 205.57 216.476 203.066C216.28 202.38 215.432 201.959 214.551 202.117C213.703 202.275 213.181 202.987 213.377 203.672L213.344 203.646ZM217.095 218.433C217.617 220.937 218.041 223.441 218.433 225.892C218.53 226.551 219.215 227.026 219.998 227.026C220.063 227.026 220.129 227.026 220.194 227.026C221.074 226.947 221.694 226.314 221.564 225.602C221.205 223.098 220.748 220.594 220.226 218.037C220.096 217.352 219.248 216.851 218.4 216.983C217.519 217.088 216.965 217.747 217.095 218.459V218.433ZM10.7007 4.26817C7.92829 3.10839 5.12335 1.94861 2.28575 0.815181C1.50296 0.498876 0.557117 0.762464 0.165723 1.39507C-0.22567 2.02768 0.100495 2.79209 0.883281 3.10839C3.68827 4.24182 6.49324 5.37524 9.23299 6.53502C9.4613 6.64046 9.72224 6.66682 9.95055 6.66682C10.505 6.66682 11.0595 6.40323 11.353 5.98149C11.7444 5.34888 11.4509 4.58448 10.6681 4.24181L10.7007 4.26817ZM208.322 189.096C209.267 191.521 210.148 193.945 210.996 196.344C211.192 196.898 211.844 197.267 212.529 197.267C212.66 197.267 212.823 197.267 212.953 197.214C213.801 197.029 214.29 196.318 214.062 195.632C213.214 193.207 212.333 190.782 211.355 188.331C211.094 187.646 210.213 187.277 209.365 187.488C208.517 187.698 208.061 188.41 208.322 189.096ZM219.346 233.378C219.574 235.909 219.737 238.439 219.835 240.89C219.835 241.576 220.553 242.129 221.433 242.129H221.466C222.346 242.129 223.031 241.523 222.999 240.811C222.901 238.307 222.738 235.75 222.51 233.167C222.444 232.456 221.662 231.928 220.814 231.981C219.933 232.034 219.281 232.64 219.346 233.352V233.378ZM205.354 181.952C205.582 182.479 206.202 182.822 206.854 182.822C207.017 182.822 207.213 182.822 207.376 182.743C208.191 182.506 208.648 181.768 208.354 181.109C207.343 178.737 206.234 176.338 205.093 173.939C204.766 173.28 203.853 172.938 203.038 173.201C202.222 173.465 201.798 174.203 202.124 174.862C203.266 177.234 204.31 179.606 205.354 181.952ZM172.966 127.601C173.259 127.996 173.781 128.207 174.303 128.207C174.597 128.207 174.89 128.154 175.151 128.022C175.901 127.653 176.13 126.863 175.673 126.256C174.042 124.121 172.346 121.96 170.617 119.825C170.128 119.219 169.15 119.06 168.432 119.456C167.682 119.851 167.486 120.642 167.975 121.222C169.704 123.357 171.368 125.466 172.998 127.601H172.966ZM191.002 154.091C191.263 154.539 191.85 154.803 192.438 154.803C192.666 154.803 192.894 154.75 193.123 154.671C193.905 154.355 194.231 153.59 193.873 152.958C192.503 150.691 191.1 148.424 189.665 146.131C189.274 145.498 188.295 145.261 187.513 145.577C186.73 145.894 186.436 146.684 186.828 147.317C188.263 149.584 189.665 151.824 191.002 154.065V154.091ZM159.202 310.767C156.234 310.767 153.168 310.583 150.037 310.267C149.189 310.187 148.373 310.688 148.275 311.374C148.178 312.085 148.797 312.718 149.645 312.797C152.907 313.113 156.103 313.298 159.202 313.298C160.082 313.298 160.8 312.718 160.8 312.033C160.8 311.321 160.115 310.741 159.234 310.741L159.202 310.767ZM106.331 298.3C103.657 297.166 100.917 295.954 98.177 294.662C97.4269 294.319 96.4484 294.53 96.0244 295.137C95.6003 295.743 95.8613 296.534 96.6114 296.876C99.4164 298.194 102.189 299.407 104.896 300.566C105.124 300.672 105.385 300.698 105.613 300.698C106.168 300.698 106.722 300.435 107.016 300.013C107.407 299.38 107.114 298.616 106.331 298.273V298.3ZM193.318 302.016C190.905 303.519 188.361 304.837 185.653 305.97C184.871 306.286 184.577 307.077 184.968 307.71C185.262 308.158 185.816 308.395 186.371 308.395C186.632 308.395 186.86 308.342 187.089 308.263C189.926 307.077 192.698 305.654 195.243 304.072C195.927 303.65 196.058 302.833 195.536 302.28C194.982 301.726 194.003 301.621 193.318 302.043V302.016ZM200.755 168.562C201.57 168.298 201.961 167.534 201.603 166.875C200.396 164.556 199.156 162.21 197.852 159.89C197.493 159.257 196.547 158.967 195.764 159.257C194.949 159.547 194.623 160.312 194.982 160.944C196.286 163.264 197.526 165.557 198.7 167.877C198.961 168.378 199.548 168.667 200.167 168.667C200.363 168.667 200.592 168.641 200.787 168.562H200.755ZM185.197 139.436C183.696 137.222 182.131 135.007 180.533 132.793C180.109 132.187 179.13 131.976 178.38 132.345C177.63 132.714 177.369 133.479 177.826 134.085C179.424 136.273 180.957 138.46 182.424 140.675C182.718 141.096 183.24 141.333 183.827 141.333C184.088 141.333 184.349 141.281 184.577 141.175C185.36 140.833 185.621 140.042 185.197 139.436ZM215.693 277.081C214.845 276.844 213.964 277.186 213.671 277.872C212.627 280.27 211.453 282.563 210.148 284.751C209.757 285.384 210.083 286.148 210.898 286.465C211.127 286.544 211.355 286.596 211.583 286.596C212.17 286.596 212.725 286.333 213.018 285.885C214.388 283.618 215.595 281.219 216.671 278.741C216.965 278.083 216.541 277.344 215.693 277.107V277.081ZM221.498 247.19C220.553 247.164 219.9 247.717 219.868 248.429C219.77 250.986 219.607 253.49 219.313 255.915C219.248 256.627 219.868 257.233 220.748 257.312C220.781 257.312 220.846 257.312 220.879 257.312C221.694 257.312 222.379 256.811 222.444 256.152C222.738 253.674 222.901 251.091 222.999 248.508C222.999 247.796 222.346 247.216 221.466 247.19H221.498ZM177.271 308.711C174.433 309.423 171.433 309.95 168.367 310.293C167.486 310.398 166.899 311.031 166.997 311.743C167.095 312.375 167.78 312.85 168.563 312.85C168.628 312.85 168.693 312.85 168.791 312.85C172.02 312.481 175.216 311.927 178.217 311.189C179.065 310.978 179.522 310.267 179.261 309.581C179 308.896 178.119 308.527 177.271 308.738V308.711ZM219.998 262.294C219.15 262.188 218.302 262.663 218.172 263.348C217.682 265.852 217.03 268.33 216.313 270.676C216.084 271.361 216.606 272.046 217.454 272.231C217.585 272.231 217.715 272.257 217.845 272.257C218.563 272.257 219.215 271.862 219.378 271.282C220.129 268.857 220.748 266.327 221.27 263.743C221.401 263.032 220.814 262.373 219.965 262.267L219.998 262.294ZM207.832 290.787C207.115 290.392 206.104 290.55 205.647 291.156C203.951 293.239 202.059 295.216 200.07 296.982C199.483 297.509 199.515 298.326 200.167 298.8C200.461 299.011 200.852 299.143 201.244 299.143C201.668 299.143 202.092 299.011 202.418 298.721C204.538 296.85 206.528 294.768 208.322 292.58C208.811 292 208.615 291.183 207.865 290.814L207.832 290.787ZM130.173 77.7299C128.053 75.8584 125.901 74.0133 123.715 72.1682C123.096 71.6674 122.117 71.6411 121.465 72.1419C120.845 72.6427 120.813 73.4334 121.432 73.9606C123.618 75.7794 125.738 77.6245 127.825 79.4696C128.151 79.7332 128.575 79.8913 128.999 79.8913C129.391 79.8913 129.782 79.7859 130.076 79.5487C130.728 79.0742 130.76 78.2571 130.173 77.7299ZM123.291 304.494C120.486 303.598 117.616 302.622 114.746 301.568C113.963 301.278 113.017 301.568 112.626 302.201C112.267 302.833 112.626 303.598 113.409 303.888C116.344 304.968 119.28 305.97 122.15 306.893C122.346 306.945 122.541 306.972 122.737 306.972C123.357 306.972 123.976 306.655 124.205 306.155C124.531 305.496 124.107 304.758 123.291 304.494ZM115.985 68.9261C116.377 68.9261 116.801 68.7943 117.094 68.5571C117.714 68.0563 117.714 67.2392 117.094 66.7383C114.876 64.9459 112.626 63.1799 110.343 61.4139C109.723 60.9131 108.712 60.9394 108.092 61.4666C107.473 61.9674 107.505 62.7845 108.158 63.2853C110.441 65.025 112.659 66.7911 114.876 68.5571C115.17 68.7943 115.594 68.9261 115.985 68.9261ZM159.985 107.225C159.463 106.645 158.484 106.514 157.767 106.935C157.049 107.357 156.886 108.148 157.408 108.728C159.234 110.784 161.061 112.84 162.789 114.896C163.083 115.265 163.605 115.449 164.094 115.449C164.42 115.449 164.714 115.37 165.007 115.212C165.725 114.817 165.921 114 165.399 113.42C163.638 111.337 161.811 109.255 159.952 107.199L159.985 107.225ZM153.103 103.166C153.429 103.166 153.787 103.087 154.048 102.902C154.733 102.481 154.896 101.664 154.342 101.11C152.45 99.1068 150.526 97.1036 148.536 95.1003C147.982 94.5468 147.003 94.4677 146.318 94.8894C145.633 95.3375 145.536 96.1283 146.057 96.6818C148.014 98.6587 149.939 100.662 151.798 102.639C152.124 102.982 152.581 103.14 153.07 103.14L153.103 103.166ZM141.002 308.949C138.099 308.421 135.098 307.762 132.065 306.998C131.217 306.787 130.336 307.156 130.076 307.842C129.815 308.527 130.271 309.239 131.119 309.449C134.218 310.24 137.316 310.899 140.317 311.453C140.448 311.453 140.545 311.479 140.676 311.479C141.393 311.479 142.046 311.084 142.209 310.477C142.404 309.792 141.85 309.107 141.002 308.949ZM136.468 83.397C135.881 82.8699 134.87 82.8172 134.218 83.2916C133.565 83.7661 133.5 84.5568 134.087 85.1104C136.142 87.0082 138.197 88.9324 140.187 90.8566C140.513 91.1729 140.937 91.3047 141.393 91.3047C141.752 91.3047 142.111 91.1992 142.404 91.0147C143.089 90.5666 143.155 89.7495 142.6 89.1959C140.611 87.2454 138.556 85.3212 136.468 83.397Z" fill="white"/>
</svg>